0
SECTION
2
HEADER
9
$INSUNITS
70
4
9
$ACADVER
1
AC1014
9
$HANDSEED
5
FFFF
0
ENDSEC
0
SECTION
2
TABLES
0
TABLE
2
VPORT
5
8
100
AcDbSymbolTable
0
ENDTAB
0
TABLE
2
LTYPE
5
5
100
AcDbSymbolTable
0
LTYPE
5
14
100
AcDbSymbolTableRecord
100
AcDbLinetypeTableRecord
2
BYBLOCK
70
0
0
LTYPE
5
15
100
AcDbSymbolTableRecord
100
AcDbLinetypeTableRecord
2
BYLAYER
70
0
0
ENDTAB
0
TABLE
2
LAYER
5
2
100
AcDbSymbolTable
70
2
0
LAYER
5
50
100
AcDbSymbolTableRecord
100
AcDbLayerTableRecord
2
0
70
0
6
CONTINUOUS
0
ENDTAB
0
TABLE
2
STYLE
5
3
100
AcDbSymbolTable
70
1
0
STYLE
5
11
100
AcDbSymbolTableRecord
100
AcDbTextStyleTableRecord
2
STANDARD
70
0
0
ENDTAB
0
TABLE
2
VIEW
5
6
100
AcDbSymbolTable
70
0
0
ENDTAB
0
TABLE
2
UCS
5
7
100
AcDbSymbolTable
70
0
0
ENDTAB
0
TABLE
2
APPID
5
9
100
AcDbSymbolTable
70
2
0
APPID
5
12
100
AcDbSymbolTableRecord
100
AcDbRegAppTableRecord
2
ACAD
70
0
0
ENDTAB
0
TABLE
2
DIMSTYLE
5
A
100
AcDbSymbolTable
70
1
0
ENDTAB
0
TABLE
2
BLOCK_RECORD
5
1
100
AcDbSymbolTable
70
1
0
BLOCK_RECORD
5
1F
100
AcDbSymbolTableRecord
100
AcDbBlockTableRecord
2
*MODEL_SPACE
0
BLOCK_RECORD
5
1B
100
AcDbSymbolTableRecord
100
AcDbBlockTableRecord
2
*PAPER_SPACE
0
ENDTAB
0
ENDSEC
0
SECTION
2
BLOCKS
0
BLOCK
5
20
100
AcDbEntity
100
AcDbBlockBegin
2
*MODEL_SPACE
0
ENDBLK
5
21
100
AcDbEntity
100
AcDbBlockEnd
0
BLOCK
5
1C
100
AcDbEntity
100
AcDbBlockBegin
2
*PAPER_SPACE
0
ENDBLK
5
1D
100
AcDbEntity
100
AcDbBlockEnd
0
ENDSEC
0
SECTION
2
ENTITIES
0
LWPOLYLINE
5
100
100
AcDbEntity
8
0
100
AcDbPolyline
90
4
70
1
43
0.0
10
-29.090909090909093
20
38.5
10
-36.363636363636367
20
38.5
10
-36.363636363636367
20
41.499999999999993
10
-29.090909090909093
20
41.499999999999993
0
LWPOLYLINE
5
101
100
AcDbEntity
8
0
100
AcDbPolyline
90
4
70
1
43
0.0
10
-14.545454545454541
20
41.499999999999993
10
-14.545454545454541
20
38.5
10
-21.818181818181817
20
38.5
10
-21.818181818181817
20
41.499999999999993
0
LWPOLYLINE
5
102
100
AcDbEntity
8
0
100
AcDbPolyline
90
92
70
1
43
0.0
10
-36.36363636363636
20
77
10
-43.63636363636364
20
77
10
-43.63636363636364
20
80
10
-50.909090909090921
20
80
10
-50.909090909090921
20
77
10
-58.181818181818194
20
77
10
-58.181818181818194
20
80
10
-65.454545454545467
20
80
10
-65.454545454545467
20
77
10
-72.727272727272748
20
77
10
-72.727272727272748
20
80
10
-77
20
80
10
-77
20
72.72727272727272
10
-80
20
72.72727272727272
10
-80
20
65.454545454545453
10
-77
20
65.454545454545453
10
-77
20
58.181818181818187
10
-80
20
58.181818181818187
10
-80
20
50.909090909090899
10
-77
20
50.909090909090899
10
-77
20
43.636363636363633
10
-80
20
43.636363636363633
10
-80
20
41.499999999999993
10
-72.727272727272734
20
41.499999999999993
10
-72.727272727272734
20
38.5
10
-80
20
38.5
10
-80
20
36.36363636363636
10
-77
20
36.36363636363636
10
-77
20
29.090909090909093
10
-80
20
29.090909090909093
10
-80
20
21.818181818181817
10
-77
20
21.818181818181817
10
-77
20
14.545454545454541
10
-80
20
14.545454545454541
10
-80
20
7.2727272727272663
10
-77
20
7.2727272727272663
10
-77
20
2.9999999999999982
10
-72.727272727272734
20
3.0000000000000004
10
-72.727272727272734
20
0
10
-65.454545454545453
20
0
10
-65.454545454545453
20
3.0000000000000004
10
-58.181818181818187
20
3.0000000000000004
10
-58.181818181818187
20
0
10
-50.909090909090907
20
0
10
-50.909090909090907
20
3.0000000000000004
10
-43.636363636363633
20
3.0000000000000004
10
-43.636363636363633
20
0
10
-36.363636363636367
20
0
10
-36.363636363636367
20
3.0000000000000004
10
-29.090909090909093
20
3.0000000000000004
10
-29.090909090909093
20
0
10
-21.818181818181817
20
0
10
-21.818181818181817
20
3.0000000000000004
10
-14.545454545454541
20
3.0000000000000004
10
-14.545454545454541
20
0
10
-7.2727272727272663
20
0
10
-7.2727272727272663
20
3.0000000000000004
10
-2.9999999999999982
20
2.9999999999999982
10
-2.9999999999999982
20
7.2727272727272663
10
0
20
7.2727272727272663
10
0
20
14.545454545454541
10
-2.9999999999999982
20
14.545454545454541
10
-2.9999999999999982
20
21.818181818181817
10
0
20
21.818181818181817
10
0
20
29.090909090909093
10
-2.9999999999999982
20
29.090909090909093
10
-2.9999999999999982
20
36.36363636363636
10
0
20
36.36363636363636
10
0
20
38.5
10
-7.2727272727272663
20
38.5
10
-7.2727272727272663
20
41.499999999999993
10
0
20
41.499999999999993
10
0
20
43.636363636363633
10
-2.9999999999999982
20
43.636363636363633
10
-2.9999999999999982
20
50.909090909090899
10
0
20
50.909090909090899
10
0
20
58.181818181818187
10
-2.9999999999999982
20
58.181818181818187
10
-2.9999999999999982
20
65.454545454545453
10
0
20
65.454545454545453
10
0
20
72.72727272727272
10
-2.9999999999999982
20
72.72727272727272
10
-2.9999999999999982
20
80
10
-7.2727272727272574
20
80
10
-7.2727272727272574
20
77
10
-14.545454545454533
20
77
10
-14.545454545454533
20
80
10
-21.818181818181806
20
80
10
-21.818181818181806
20
77
10
-29.090909090909083
20
77
10
-29.090909090909083
20
80
10
-36.36363636363636
20
80
0
LWPOLYLINE
5
103
100
AcDbEntity
8
0
100
AcDbPolyline
90
4
70
1
43
0.0
10
-65.454545454545453
20
38.5
10
-65.454545454545453
20
41.499999999999993
10
-58.181818181818187
20
41.499999999999993
10
-58.181818181818187
20
38.5
0
LWPOLYLINE
5
104
100
AcDbEntity
8
0
100
AcDbPolyline
90
4
70
1
43
0.0
10
-43.636363636363633
20
38.5
10
-50.909090909090907
20
38.5
10
-50.909090909090907
20
41.499999999999993
10
-43.636363636363633
20
41.499999999999993
0
ENDSEC
0
SECTION
2
OBJECTS
0
DICTIONARY
5
C
100
AcDbDictionary
3
ACAD_GROUP
350
D
3
ACAD_MLINESTYLE
350
17
0
DICTIONARY
5
D
100
AcDbDictionary
0
DICTIONARY
5
1A
330
C
100
AcDbDictionary
0
DICTIONARY
5
17
100
AcDbDictionary
0
ENDSEC
0
EOF
