999
"DXF R12 Output" (www.mydxf.blogspot.com)
 0 
SECTION
 2 
HEADER
 9 
$ACADVER
 1 
AC1009
 9 
$EXTMIN
 10 
 0 
 20 
 0 
 9 
$EXTMAX
 10 
 8.5 
 20 
 11 
 0 
ENDSEC
 0 
SECTION
 2 
ENTITIES
0
LINE
8
Layer 1
10
0.846666
20
317.647000
11
-0.846666
21
315.953000
0
LINE
8
Layer 1
10
0.000000
20
318.211000
11
0.000000
21
315.389000
0
LINE
8
Layer 1
10
2.257780
20
315.671000
11
1.128890
21
314.542110
0
LINE
8
Layer 1
10
1.693330
20
316.236000
11
0.564440
21
315.107110
0
LINE
8
Layer 1
10
1.128890
20
316.800000
11
0.000000
21
315.671110
0
LINE
8
0
10
10.649500
20
13.773800
11
10.649500
21
12.610100
0
LINE
8
0
10
10.649500
20
12.610100
11
14.819200
21
12.610100
0
LINE
8
0
10
14.819200
20
12.610100
11
14.819200
21
9.410150
0
LINE
8
0
10
14.819200
20
9.410150
11
22.188900
21
9.410150
0
LINE
8
0
10
22.188900
20
9.410150
11
22.188900
21
12.610100
0
LINE
8
0
10
22.188900
20
12.610100
11
29.558600
21
12.610100
0
LINE
8
0
10
29.558600
20
12.610100
11
29.558600
21
9.410150
0
LINE
8
0
10
29.558600
20
9.410150
11
36.928300
21
9.410150
0
LINE
8
0
10
36.928300
20
9.410150
11
36.928300
21
12.610100
0
LINE
8
0
10
36.928300
20
12.610100
11
44.298000
21
12.610100
0
LINE
8
0
10
44.298000
20
12.610100
11
44.298000
21
9.410150
0
LINE
8
0
10
44.298000
20
9.410150
11
51.667600
21
9.410150
0
LINE
8
0
10
51.667600
20
9.410150
11
51.667600
21
12.610100
0
LINE
8
0
10
51.667600
20
12.610100
11
59.037300
21
12.610100
0
LINE
8
0
10
59.037300
20
12.610100
11
59.037300
21
9.410150
0
LINE
8
0
10
59.037300
20
9.410150
11
66.407000
21
9.410150
0
LINE
8
0
10
66.407000
20
9.410150
11
66.407000
21
12.610100
0
LINE
8
0
10
66.407000
20
12.610100
11
73.776700
21
12.610100
0
LINE
8
0
10
73.776700
20
12.610100
11
73.776700
21
9.410150
0
LINE
8
0
10
73.776700
20
9.410150
11
81.146400
21
9.410150
0
LINE
8
0
10
81.146400
20
9.410150
11
81.146400
21
12.610100
0
LINE
8
0
10
81.146400
20
12.610100
11
85.316100
21
12.610100
0
LINE
8
0
10
85.316100
20
12.610100
11
85.316100
21
13.773800
0
LINE
8
0
10
85.316100
20
13.773800
11
88.516100
21
13.773800
0
LINE
8
0
10
88.516100
20
13.773800
11
88.516100
21
17.070800
0
LINE
8
0
10
88.516100
20
17.070800
11
85.316100
21
17.070800
0
LINE
8
0
10
85.316100
20
17.070800
11
85.316100
21
20.367700
0
LINE
8
0
10
85.316100
20
20.367700
11
88.516100
21
20.367700
0
LINE
8
0
10
88.516100
20
20.367700
11
88.516100
21
23.664700
0
LINE
8
0
10
88.516100
20
23.664700
11
85.316100
21
23.664700
0
LINE
8
0
10
85.316100
20
23.664700
11
85.316100
21
26.961600
0
LINE
8
0
10
85.316100
20
26.961600
11
88.516100
21
26.961600
0
LINE
8
0
10
88.516100
20
26.961600
11
88.516100
21
30.258600
0
LINE
8
0
10
88.516100
20
30.258600
11
85.316100
21
30.258600
0
LINE
8
0
10
85.316100
20
30.258600
11
85.316100
21
33.555600
0
LINE
8
0
10
85.316100
20
33.555600
11
88.516100
21
33.555600
0
LINE
8
0
10
88.516100
20
33.555600
11
88.516100
21
36.852500
0
LINE
8
0
10
88.516100
20
36.852500
11
85.316100
21
36.852500
0
LINE
8
0
10
85.316100
20
36.852500
11
85.316100
21
40.149500
0
LINE
8
0
10
85.316100
20
40.149500
11
88.516100
21
40.149500
0
LINE
8
0
10
88.516100
20
40.149500
11
88.516100
21
43.446500
0
LINE
8
0
10
88.516100
20
43.446500
11
85.316100
21
43.446500
0
LINE
8
0
10
85.316100
20
43.446500
11
85.316100
21
45.676800
0
LINE
8
0
10
85.316100
20
45.676800
11
10.649500
21
45.676800
0
LINE
8
0
10
10.649500
20
45.676800
11
10.649500
21
43.446500
0
LINE
8
0
10
10.649500
20
43.446500
11
7.449500
21
43.446500
0
LINE
8
0
10
7.449500
20
43.446500
11
7.449500
21
40.149500
0
LINE
8
0
10
7.449500
20
40.149500
11
10.649500
21
40.149500
0
LINE
8
0
10
10.649500
20
40.149500
11
10.649500
21
36.852500
0
LINE
8
0
10
10.649500
20
36.852500
11
7.449500
21
36.852500
0
LINE
8
0
10
7.449500
20
36.852500
11
7.449500
21
33.555600
0
LINE
8
0
10
7.449500
20
33.555600
11
10.649500
21
33.555600
0
LINE
8
0
10
10.649500
20
33.555600
11
10.649500
21
30.258600
0
LINE
8
0
10
10.649500
20
30.258600
11
7.449500
21
30.258600
0
LINE
8
0
10
7.449500
20
30.258600
11
7.449500
21
26.961600
0
LINE
8
0
10
7.449500
20
26.961600
11
10.649500
21
26.961600
0
LINE
8
0
10
10.649500
20
26.961600
11
10.649500
21
23.664700
0
LINE
8
0
10
10.649500
20
23.664700
11
7.449500
21
23.664700
0
LINE
8
0
10
7.449500
20
23.664700
11
7.449500
21
20.367700
0
LINE
8
0
10
7.449500
20
20.367700
11
10.649500
21
20.367700
0
LINE
8
0
10
10.649500
20
20.367700
11
10.649500
21
17.070800
0
LINE
8
0
10
10.649500
20
17.070800
11
7.449500
21
17.070800
0
LINE
8
0
10
7.449500
20
17.070800
11
7.449500
21
13.773800
0
LINE
8
0
10
7.449500
20
13.773800
11
10.649500
21
13.773800
0
LINE
8
0
10
102.639000
20
13.284000
11
102.639000
21
12.120400
0
LINE
8
0
10
102.639000
20
12.120400
11
106.809000
21
12.120400
0
LINE
8
0
10
106.809000
20
12.120400
11
106.809000
21
8.920380
0
LINE
8
0
10
106.809000
20
8.920380
11
114.178000
21
8.920380
0
LINE
8
0
10
114.178000
20
8.920380
11
114.178000
21
12.120400
0
LINE
8
0
10
114.178000
20
12.120400
11
121.548000
21
12.120400
0
LINE
8
0
10
121.548000
20
12.120400
11
121.548000
21
8.920380
0
LINE
8
0
10
121.548000
20
8.920380
11
128.918000
21
8.920380
0
LINE
8
0
10
128.918000
20
8.920380
11
128.918000
21
12.120400
0
LINE
8
0
10
128.918000
20
12.120400
11
136.287000
21
12.120400
0
LINE
8
0
10
136.287000
20
12.120400
11
136.287000
21
8.920380
0
LINE
8
0
10
136.287000
20
8.920380
11
143.657000
21
8.920380
0
LINE
8
0
10
143.657000
20
8.920380
11
143.657000
21
12.120400
0
LINE
8
0
10
143.657000
20
12.120400
11
151.027000
21
12.120400
0
LINE
8
0
10
151.027000
20
12.120400
11
151.027000
21
8.920380
0
LINE
8
0
10
151.027000
20
8.920380
11
158.396000
21
8.920380
0
LINE
8
0
10
158.396000
20
8.920380
11
158.396000
21
12.120400
0
LINE
8
0
10
158.396000
20
12.120400
11
165.766000
21
12.120400
0
LINE
8
0
10
165.766000
20
12.120400
11
165.766000
21
8.920380
0
LINE
8
0
10
165.766000
20
8.920380
11
173.136000
21
8.920380
0
LINE
8
0
10
173.136000
20
8.920380
11
173.136000
21
12.120400
0
LINE
8
0
10
173.136000
20
12.120400
11
177.305000
21
12.120400
0
LINE
8
0
10
177.305000
20
12.120400
11
177.305000
21
13.284000
0
LINE
8
0
10
177.305000
20
13.284000
11
180.505000
21
13.284000
0
LINE
8
0
10
180.505000
20
13.284000
11
180.505000
21
16.581000
0
LINE
8
0
10
180.505000
20
16.581000
11
177.305000
21
16.581000
0
LINE
8
0
10
177.305000
20
16.581000
11
177.305000
21
19.877900
0
LINE
8
0
10
177.305000
20
19.877900
11
180.505000
21
19.877900
0
LINE
8
0
10
180.505000
20
19.877900
11
180.505000
21
23.174900
0
LINE
8
0
10
180.505000
20
23.174900
11
177.305000
21
23.174900
0
LINE
8
0
10
177.305000
20
23.174900
11
177.305000
21
26.471900
0
LINE
8
0
10
177.305000
20
26.471900
11
180.505000
21
26.471900
0
LINE
8
0
10
180.505000
20
26.471900
11
180.505000
21
29.768900
0
LINE
8
0
10
180.505000
20
29.768900
11
177.305000
21
29.768900
0
LINE
8
0
10
177.305000
20
29.768900
11
177.305000
21
33.065800
0
LINE
8
0
10
177.305000
20
33.065800
11
180.505000
21
33.065800
0
LINE
8
0
10
180.505000
20
33.065800
11
180.505000
21
36.362800
0
LINE
8
0
10
180.505000
20
36.362800
11
177.305000
21
36.362800
0
LINE
8
0
10
177.305000
20
36.362800
11
177.305000
21
39.659700
0
LINE
8
0
10
177.305000
20
39.659700
11
180.505000
21
39.659700
0
LINE
8
0
10
180.505000
20
39.659700
11
180.505000
21
42.956700
0
LINE
8
0
10
180.505000
20
42.956700
11
177.305000
21
42.956700
0
LINE
8
0
10
177.305000
20
42.956700
11
177.305000
21
45.187000
0
LINE
8
0
10
177.305000
20
45.187000
11
102.639000
21
45.187000
0
LINE
8
0
10
102.639000
20
45.187000
11
102.639000
21
42.956700
0
LINE
8
0
10
102.639000
20
42.956700
11
99.438900
21
42.956700
0
LINE
8
0
10
99.438900
20
42.956700
11
99.438900
21
39.659700
0
LINE
8
0
10
99.438900
20
39.659700
11
102.639000
21
39.659700
0
LINE
8
0
10
102.639000
20
39.659700
11
102.639000
21
36.362800
0
LINE
8
0
10
102.639000
20
36.362800
11
99.438900
21
36.362800
0
LINE
8
0
10
99.438900
20
36.362800
11
99.438900
21
33.065800
0
LINE
8
0
10
99.438900
20
33.065800
11
102.639000
21
33.065800
0
LINE
8
0
10
102.639000
20
33.065800
11
102.639000
21
29.768900
0
LINE
8
0
10
102.639000
20
29.768900
11
99.438900
21
29.768900
0
LINE
8
0
10
99.438900
20
29.768900
11
99.438900
21
26.471900
0
LINE
8
0
10
99.438900
20
26.471900
11
102.639000
21
26.471900
0
LINE
8
0
10
102.639000
20
26.471900
11
102.639000
21
23.174900
0
LINE
8
0
10
102.639000
20
23.174900
11
99.438900
21
23.174900
0
LINE
8
0
10
99.438900
20
23.174900
11
99.438900
21
19.877900
0
LINE
8
0
10
99.438900
20
19.877900
11
102.639000
21
19.877900
0
LINE
8
0
10
102.639000
20
19.877900
11
102.639000
21
16.581000
0
LINE
8
0
10
102.639000
20
16.581000
11
99.438900
21
16.581000
0
LINE
8
0
10
99.438900
20
16.581000
11
99.438900
21
13.284000
0
LINE
8
0
10
99.438900
20
13.284000
11
102.639000
21
13.284000
 0 
ENDSEC
 0 
EOF