999
"DXF R12 Output" (www.mydxf.blogspot.com)
 0 
SECTION
 2 
HEADER
 9 
$ACADVER
 1 
AC1009
 9 
$EXTMIN
 10 
 0 
 20 
 0 
 9 
$EXTMAX
 10 
 8.5 
 20 
 11 
 0 
ENDSEC
 0 
SECTION
 2 
ENTITIES
0
LINE
8
Layer 1
10
0.846666
20
317.647000
11
-0.846666
21
315.953000
0
LINE
8
Layer 1
10
0.000000
20
318.211000
11
0.000000
21
315.389000
0
LINE
8
Layer 1
10
2.257780
20
315.671000
11
1.128890
21
314.542110
0
LINE
8
Layer 1
10
1.693330
20
316.236000
11
0.564440
21
315.107110
0
LINE
8
Layer 1
10
1.128890
20
316.800000
11
0.000000
21
315.671110
0
LINE
8
Layer 1
10
-1.600000
20
89.600200
11
-1.692311
21
90.295979
0
LINE
8
Layer 1
10
-1.692311
20
90.295979
11
-1.957269
21
90.933530
0
LINE
8
Layer 1
10
-1.957269
20
90.933530
11
-2.376927
21
91.481765
0
LINE
8
Layer 1
10
-2.376927
20
91.481765
11
-2.933335
21
91.909595
0
LINE
8
Layer 1
10
-2.933335
20
91.909595
11
-3.582051
21
92.177544
0
LINE
8
Layer 1
10
-3.582051
20
92.177544
11
-4.266665
21
92.266860
0
LINE
8
Layer 1
10
-4.266665
20
92.266860
11
-4.951279
21
92.177544
0
LINE
8
Layer 1
10
-4.951279
20
92.177544
11
-5.599995
21
91.909595
0
LINE
8
Layer 1
10
-5.599995
20
91.909595
11
-6.156403
21
91.481765
0
LINE
8
Layer 1
10
-6.156403
20
91.481765
11
-6.576060
21
90.933530
0
LINE
8
Layer 1
10
-6.576060
20
90.933530
11
-6.841017
21
90.295979
0
LINE
8
Layer 1
10
-6.841017
20
90.295979
11
-6.933325
21
89.600200
0
LINE
8
Layer 1
10
-6.933325
20
89.600200
11
-6.841016
21
88.904421
0
LINE
8
Layer 1
10
-6.841016
20
88.904421
11
-6.576058
21
88.266870
0
LINE
8
Layer 1
10
-6.576058
20
88.266870
11
-6.156401
21
87.718635
0
LINE
8
Layer 1
10
-6.156401
20
87.718635
11
-5.599993
21
87.290805
0
LINE
8
Layer 1
10
-5.599993
20
87.290805
11
-4.951277
21
87.022856
0
LINE
8
Layer 1
10
-4.951277
20
87.022856
11
-4.266663
21
86.933540
0
LINE
8
Layer 1
10
-4.266663
20
86.933540
11
-3.582048
21
87.022856
0
LINE
8
Layer 1
10
-3.582048
20
87.022856
11
-2.933333
21
87.290805
0
LINE
8
Layer 1
10
-2.933333
20
87.290805
11
-2.376924
21
87.718635
0
LINE
8
Layer 1
10
-2.376924
20
87.718635
11
-1.957267
21
88.266870
0
LINE
8
Layer 1
10
-1.957267
20
88.266870
11
-1.692310
21
88.904421
0
LINE
8
Layer 1
10
-1.692310
20
88.904421
11
-1.600002
21
89.600200
0
LINE
8
Layer 1
10
-1.600002
20
89.600200
11
-1.600000
21
89.600200
0
LINE
8
Layer 1
10
-85.333300
20
41.066900
11
-85.333300
21
3.200250
0
LINE
8
Layer 1
10
-85.333300
20
3.200250
11
-77.575700
21
3.200250
0
LINE
8
Layer 1
10
-77.575700
20
3.200250
11
-77.575700
21
0.000245
0
LINE
8
Layer 1
10
-77.575700
20
0.000245
11
-69.818100
21
0.000245
0
LINE
8
Layer 1
10
-69.818100
20
0.000245
11
-69.818100
21
3.200250
0
LINE
8
Layer 1
10
-69.818100
20
3.200250
11
-62.060600
21
3.200250
0
LINE
8
Layer 1
10
-62.060600
20
3.200250
11
-62.060600
21
0.000245
0
LINE
8
Layer 1
10
-62.060600
20
0.000245
11
-54.303000
21
0.000245
0
LINE
8
Layer 1
10
-54.303000
20
0.000245
11
-54.303000
21
3.200250
0
LINE
8
Layer 1
10
-54.303000
20
3.200250
11
-46.545400
21
3.200250
0
LINE
8
Layer 1
10
-46.545400
20
3.200250
11
-46.545400
21
0.000245
0
LINE
8
Layer 1
10
-46.545400
20
0.000245
11
-38.787800
21
0.000245
0
LINE
8
Layer 1
10
-38.787800
20
0.000245
11
-38.787800
21
3.200250
0
LINE
8
Layer 1
10
-38.787800
20
3.200250
11
-31.030300
21
3.200250
0
LINE
8
Layer 1
10
-31.030300
20
3.200250
11
-31.030300
21
0.000245
0
LINE
8
Layer 1
10
-31.030300
20
0.000245
11
-23.272700
21
0.000245
0
LINE
8
Layer 1
10
-23.272700
20
0.000245
11
-23.272700
21
3.200250
0
LINE
8
Layer 1
10
-23.272700
20
3.200250
11
-15.515100
21
3.200250
0
LINE
8
Layer 1
10
-15.515100
20
3.200250
11
-15.515100
21
0.000245
0
LINE
8
Layer 1
10
-15.515100
20
0.000245
11
-7.757570
21
0.000245
0
LINE
8
Layer 1
10
-7.757570
20
0.000245
11
-7.757570
21
3.200250
0
LINE
8
Layer 1
10
-7.757570
20
3.200250
11
0.000000
21
3.200250
0
LINE
8
Layer 1
10
0.000000
20
3.200250
11
0.000000
21
7.757820
0
LINE
8
Layer 1
10
0.000000
20
7.757820
11
-3.200000
21
7.757820
0
LINE
8
Layer 1
10
-3.200000
20
7.757820
11
-3.200000
21
15.515400
0
LINE
8
Layer 1
10
-3.200000
20
15.515400
11
0.000000
21
15.515400
0
LINE
8
Layer 1
10
0.000000
20
15.515400
11
0.000000
21
23.272900
0
LINE
8
Layer 1
10
0.000000
20
23.272900
11
-3.200000
21
23.272900
0
LINE
8
Layer 1
10
-3.200000
20
23.272900
11
-3.200000
21
31.030500
0
LINE
8
Layer 1
10
-3.200000
20
31.030500
11
0.000000
21
31.030500
0
LINE
8
Layer 1
10
0.000000
20
31.030500
11
0.000000
21
38.788100
0
LINE
8
Layer 1
10
0.000000
20
38.788100
11
-3.200000
21
38.788100
0
LINE
8
Layer 1
10
-3.200000
20
38.788100
11
-3.200000
21
41.066900
0
LINE
8
Layer 1
10
-3.200000
20
41.066900
11
-7.757570
21
41.066900
0
LINE
8
Layer 1
10
-7.757570
20
41.066900
11
-7.757570
21
44.266900
0
LINE
8
Layer 1
10
-7.757570
20
44.266900
11
-3.200000
21
44.266900
0
LINE
8
Layer 1
10
-3.200000
20
44.266900
11
-3.200000
21
46.545700
0
LINE
8
Layer 1
10
-3.200000
20
46.545700
11
0.000000
21
46.545700
0
LINE
8
Layer 1
10
0.000000
20
46.545700
11
0.000000
21
54.303200
0
LINE
8
Layer 1
10
0.000000
20
54.303200
11
-3.200000
21
54.303200
0
LINE
8
Layer 1
10
-3.200000
20
54.303200
11
-3.200000
21
62.060800
0
LINE
8
Layer 1
10
-3.200000
20
62.060800
11
0.000000
21
62.060800
0
LINE
8
Layer 1
10
0.000000
20
62.060800
11
0.000000
21
69.818400
0
LINE
8
Layer 1
10
0.000000
20
69.818400
11
-3.200000
21
69.818400
0
LINE
8
Layer 1
10
-3.200000
20
69.818400
11
-3.200000
21
77.575900
0
LINE
8
Layer 1
10
-3.200000
20
77.575900
11
0.000000
21
77.575900
0
LINE
8
Layer 1
10
0.000000
20
77.575900
11
0.000000
21
89.600200
0
LINE
8
Layer 1
10
0.000000
20
89.600200
11
-0.147695
21
90.713447
0
LINE
8
Layer 1
10
-0.147695
20
90.713447
11
-0.571628
21
91.733530
0
LINE
8
Layer 1
10
-0.571628
20
91.733530
11
-1.243081
21
92.610707
0
LINE
8
Layer 1
10
-1.243081
20
92.610707
11
-2.133335
21
93.295236
0
LINE
8
Layer 1
10
-2.133335
20
93.295236
11
-3.171281
21
93.723954
0
LINE
8
Layer 1
10
-3.171281
20
93.723954
11
-4.266665
21
93.866860
0
LINE
8
Layer 1
10
-4.266665
20
93.866860
11
-5.362049
21
93.723954
0
LINE
8
Layer 1
10
-5.362049
20
93.723954
11
-6.399995
21
93.295236
0
LINE
8
Layer 1
10
-6.399995
20
93.295236
11
-7.290249
21
92.610707
0
LINE
8
Layer 1
10
-7.290249
20
92.610707
11
-7.961701
21
91.733530
0
LINE
8
Layer 1
10
-7.961701
20
91.733530
11
-8.385633
21
90.713447
0
LINE
8
Layer 1
10
-8.385633
20
90.713447
11
-8.533325
21
89.600200
0
LINE
8
Layer 1
10
-8.533325
20
89.600200
11
-8.533330
21
85.333500
0
LINE
8
Layer 1
10
-8.533330
20
85.333500
11
-85.333230
21
85.333500
0
LINE
8
Layer 1
10
-85.333230
20
85.333500
11
-85.333300
21
77.575900
0
LINE
8
Layer 1
10
-85.333300
20
77.575900
11
-82.133300
21
77.575900
0
LINE
8
Layer 1
10
-82.133300
20
77.575900
11
-82.133300
21
69.818400
0
LINE
8
Layer 1
10
-82.133300
20
69.818400
11
-85.333300
21
69.818400
0
LINE
8
Layer 1
10
-85.333300
20
69.818400
11
-85.333300
21
62.060800
0
LINE
8
Layer 1
10
-85.333300
20
62.060800
11
-82.133300
21
62.060800
0
LINE
8
Layer 1
10
-82.133300
20
62.060800
11
-82.133300
21
54.303200
0
LINE
8
Layer 1
10
-82.133300
20
54.303200
11
-85.333300
21
54.303200
0
LINE
8
Layer 1
10
-85.333300
20
54.303200
11
-85.333300
21
46.545700
0
LINE
8
Layer 1
10
-85.333300
20
46.545700
11
-82.133300
21
46.545700
0
LINE
8
Layer 1
10
-82.133300
20
46.545700
11
-82.133300
21
44.266900
0
LINE
8
Layer 1
10
-82.133300
20
44.266900
11
-77.575700
21
44.266900
0
LINE
8
Layer 1
10
-77.575700
20
44.266900
11
-77.575700
21
41.066900
0
LINE
8
Layer 1
10
-77.575700
20
41.066900
11
-85.333300
21
41.066900
0
LINE
8
Layer 1
10
-31.030300
20
41.066900
11
-38.787800
21
41.066900
0
LINE
8
Layer 1
10
-38.787800
20
41.066900
11
-38.787800
21
44.266900
0
LINE
8
Layer 1
10
-38.787800
20
44.266900
11
-31.030300
21
44.266900
0
LINE
8
Layer 1
10
-31.030300
20
44.266900
11
-31.030300
21
41.066900
0
LINE
8
Layer 1
10
-46.545400
20
41.066900
11
-54.303000
21
41.066900
0
LINE
8
Layer 1
10
-54.303000
20
41.066900
11
-54.303000
21
44.266900
0
LINE
8
Layer 1
10
-54.303000
20
44.266900
11
-46.545400
21
44.266900
0
LINE
8
Layer 1
10
-46.545400
20
44.266900
11
-46.545400
21
41.066900
0
LINE
8
Layer 1
10
-62.060600
20
41.066900
11
-69.818100
21
41.066900
0
LINE
8
Layer 1
10
-69.818100
20
41.066900
11
-69.818100
21
44.266900
0
LINE
8
Layer 1
10
-69.818100
20
44.266900
11
-62.060600
21
44.266900
0
LINE
8
Layer 1
10
-62.060600
20
44.266900
11
-62.060600
21
41.066900
0
LINE
8
Layer 1
10
-23.272700
20
44.266900
11
-15.515100
21
44.266900
0
LINE
8
Layer 1
10
-15.515100
20
44.266900
11
-15.515100
21
41.066900
0
LINE
8
Layer 1
10
-15.515100
20
41.066900
11
-23.272700
21
41.066900
0
LINE
8
Layer 1
10
-23.272700
20
41.066900
11
-23.272700
21
44.266900
0
LINE
8
Layer 1
10
-1.600000
20
89.600200
11
-1.692311
21
90.295979
0
LINE
8
Layer 1
10
-1.692311
20
90.295979
11
-1.957269
21
90.933530
0
LINE
8
Layer 1
10
-1.957269
20
90.933530
11
-2.376927
21
91.481765
0
LINE
8
Layer 1
10
-2.376927
20
91.481765
11
-2.933335
21
91.909595
0
LINE
8
Layer 1
10
-2.933335
20
91.909595
11
-3.582051
21
92.177544
0
LINE
8
Layer 1
10
-3.582051
20
92.177544
11
-4.266665
21
92.266860
0
LINE
8
Layer 1
10
-4.266665
20
92.266860
11
-4.951279
21
92.177544
0
LINE
8
Layer 1
10
-4.951279
20
92.177544
11
-5.599995
21
91.909595
0
LINE
8
Layer 1
10
-5.599995
20
91.909595
11
-6.156403
21
91.481765
0
LINE
8
Layer 1
10
-6.156403
20
91.481765
11
-6.576060
21
90.933530
0
LINE
8
Layer 1
10
-6.576060
20
90.933530
11
-6.841017
21
90.295979
0
LINE
8
Layer 1
10
-6.841017
20
90.295979
11
-6.933325
21
89.600200
0
LINE
8
Layer 1
10
-6.933325
20
89.600200
11
-6.841016
21
88.904421
0
LINE
8
Layer 1
10
-6.841016
20
88.904421
11
-6.576058
21
88.266870
0
LINE
8
Layer 1
10
-6.576058
20
88.266870
11
-6.156401
21
87.718635
0
LINE
8
Layer 1
10
-6.156401
20
87.718635
11
-5.599993
21
87.290805
0
LINE
8
Layer 1
10
-5.599993
20
87.290805
11
-4.951277
21
87.022856
0
LINE
8
Layer 1
10
-4.951277
20
87.022856
11
-4.266663
21
86.933540
0
LINE
8
Layer 1
10
-4.266663
20
86.933540
11
-3.582048
21
87.022856
0
LINE
8
Layer 1
10
-3.582048
20
87.022856
11
-2.933333
21
87.290805
0
LINE
8
Layer 1
10
-2.933333
20
87.290805
11
-2.376924
21
87.718635
0
LINE
8
Layer 1
10
-2.376924
20
87.718635
11
-1.957267
21
88.266870
0
LINE
8
Layer 1
10
-1.957267
20
88.266870
11
-1.692310
21
88.904421
0
LINE
8
Layer 1
10
-1.692310
20
88.904421
11
-1.600002
21
89.600200
0
LINE
8
Layer 1
10
-1.600002
20
89.600200
11
-1.600000
21
89.600200
0
LINE
8
Layer 1
10
-85.333300
20
41.066900
11
-85.333300
21
3.200250
0
LINE
8
Layer 1
10
-85.333300
20
3.200250
11
-77.575700
21
3.200250
0
LINE
8
Layer 1
10
-77.575700
20
3.200250
11
-77.575700
21
0.000245
0
LINE
8
Layer 1
10
-77.575700
20
0.000245
11
-69.818100
21
0.000245
0
LINE
8
Layer 1
10
-69.818100
20
0.000245
11
-69.818100
21
3.200250
0
LINE
8
Layer 1
10
-69.818100
20
3.200250
11
-62.060600
21
3.200250
0
LINE
8
Layer 1
10
-62.060600
20
3.200250
11
-62.060600
21
0.000245
0
LINE
8
Layer 1
10
-62.060600
20
0.000245
11
-54.303000
21
0.000245
0
LINE
8
Layer 1
10
-54.303000
20
0.000245
11
-54.303000
21
3.200250
0
LINE
8
Layer 1
10
-54.303000
20
3.200250
11
-46.545400
21
3.200250
0
LINE
8
Layer 1
10
-46.545400
20
3.200250
11
-46.545400
21
0.000245
0
LINE
8
Layer 1
10
-46.545400
20
0.000245
11
-38.787800
21
0.000245
0
LINE
8
Layer 1
10
-38.787800
20
0.000245
11
-38.787800
21
3.200250
0
LINE
8
Layer 1
10
-38.787800
20
3.200250
11
-31.030300
21
3.200250
0
LINE
8
Layer 1
10
-31.030300
20
3.200250
11
-31.030300
21
0.000245
0
LINE
8
Layer 1
10
-31.030300
20
0.000245
11
-23.272700
21
0.000245
0
LINE
8
Layer 1
10
-23.272700
20
0.000245
11
-23.272700
21
3.200250
0
LINE
8
Layer 1
10
-23.272700
20
3.200250
11
-15.515100
21
3.200250
0
LINE
8
Layer 1
10
-15.515100
20
3.200250
11
-15.515100
21
0.000245
0
LINE
8
Layer 1
10
-15.515100
20
0.000245
11
-7.757570
21
0.000245
0
LINE
8
Layer 1
10
-7.757570
20
0.000245
11
-7.757570
21
3.200250
0
LINE
8
Layer 1
10
-7.757570
20
3.200250
11
0.000000
21
3.200250
0
LINE
8
Layer 1
10
0.000000
20
3.200250
11
0.000000
21
7.757820
0
LINE
8
Layer 1
10
0.000000
20
7.757820
11
-3.200000
21
7.757820
0
LINE
8
Layer 1
10
-3.200000
20
7.757820
11
-3.200000
21
15.515400
0
LINE
8
Layer 1
10
-3.200000
20
15.515400
11
0.000000
21
15.515400
0
LINE
8
Layer 1
10
0.000000
20
15.515400
11
0.000000
21
23.272900
0
LINE
8
Layer 1
10
0.000000
20
23.272900
11
-3.200000
21
23.272900
0
LINE
8
Layer 1
10
-3.200000
20
23.272900
11
-3.200000
21
31.030500
0
LINE
8
Layer 1
10
-3.200000
20
31.030500
11
0.000000
21
31.030500
0
LINE
8
Layer 1
10
0.000000
20
31.030500
11
0.000000
21
38.788100
0
LINE
8
Layer 1
10
0.000000
20
38.788100
11
-3.200000
21
38.788100
0
LINE
8
Layer 1
10
-3.200000
20
38.788100
11
-3.200000
21
41.066900
0
LINE
8
Layer 1
10
-3.200000
20
41.066900
11
-7.757570
21
41.066900
0
LINE
8
Layer 1
10
-7.757570
20
41.066900
11
-7.757570
21
44.266900
0
LINE
8
Layer 1
10
-7.757570
20
44.266900
11
-3.200000
21
44.266900
0
LINE
8
Layer 1
10
-3.200000
20
44.266900
11
-3.200000
21
46.545700
0
LINE
8
Layer 1
10
-3.200000
20
46.545700
11
0.000000
21
46.545700
0
LINE
8
Layer 1
10
0.000000
20
46.545700
11
0.000000
21
54.303200
0
LINE
8
Layer 1
10
0.000000
20
54.303200
11
-3.200000
21
54.303200
0
LINE
8
Layer 1
10
-3.200000
20
54.303200
11
-3.200000
21
62.060800
0
LINE
8
Layer 1
10
-3.200000
20
62.060800
11
0.000000
21
62.060800
0
LINE
8
Layer 1
10
0.000000
20
62.060800
11
0.000000
21
69.818400
0
LINE
8
Layer 1
10
0.000000
20
69.818400
11
-3.200000
21
69.818400
0
LINE
8
Layer 1
10
-3.200000
20
69.818400
11
-3.200000
21
77.575900
0
LINE
8
Layer 1
10
-3.200000
20
77.575900
11
0.000000
21
77.575900
0
LINE
8
Layer 1
10
0.000000
20
77.575900
11
0.000000
21
89.600200
0
LINE
8
Layer 1
10
0.000000
20
89.600200
11
-0.147695
21
90.713447
0
LINE
8
Layer 1
10
-0.147695
20
90.713447
11
-0.571628
21
91.733530
0
LINE
8
Layer 1
10
-0.571628
20
91.733530
11
-1.243081
21
92.610707
0
LINE
8
Layer 1
10
-1.243081
20
92.610707
11
-2.133335
21
93.295236
0
LINE
8
Layer 1
10
-2.133335
20
93.295236
11
-3.171281
21
93.723954
0
LINE
8
Layer 1
10
-3.171281
20
93.723954
11
-4.266665
21
93.866860
0
LINE
8
Layer 1
10
-4.266665
20
93.866860
11
-5.362049
21
93.723954
0
LINE
8
Layer 1
10
-5.362049
20
93.723954
11
-6.399995
21
93.295236
0
LINE
8
Layer 1
10
-6.399995
20
93.295236
11
-7.290249
21
92.610707
0
LINE
8
Layer 1
10
-7.290249
20
92.610707
11
-7.961701
21
91.733530
0
LINE
8
Layer 1
10
-7.961701
20
91.733530
11
-8.385633
21
90.713447
0
LINE
8
Layer 1
10
-8.385633
20
90.713447
11
-8.533325
21
89.600200
0
LINE
8
Layer 1
10
-8.533325
20
89.600200
11
-8.533330
21
85.333500
0
LINE
8
Layer 1
10
-8.533330
20
85.333500
11
-85.333300
21
85.333500
0
LINE
8
Layer 1
10
-85.333300
20
85.333500
11
-85.333300
21
77.575900
0
LINE
8
Layer 1
10
-85.333300
20
77.575900
11
-82.133300
21
77.575900
0
LINE
8
Layer 1
10
-82.133300
20
77.575900
11
-82.133300
21
69.818400
0
LINE
8
Layer 1
10
-82.133300
20
69.818400
11
-85.333300
21
69.818400
0
LINE
8
Layer 1
10
-85.333300
20
69.818400
11
-85.333300
21
62.060800
0
LINE
8
Layer 1
10
-85.333300
20
62.060800
11
-82.133300
21
62.060800
0
LINE
8
Layer 1
10
-82.133300
20
62.060800
11
-82.133300
21
54.303200
0
LINE
8
Layer 1
10
-82.133300
20
54.303200
11
-85.333300
21
54.303200
0
LINE
8
Layer 1
10
-85.333300
20
54.303200
11
-85.333300
21
46.545700
0
LINE
8
Layer 1
10
-85.333300
20
46.545700
11
-82.133300
21
46.545700
0
LINE
8
Layer 1
10
-82.133300
20
46.545700
11
-82.133300
21
44.266900
0
LINE
8
Layer 1
10
-82.133300
20
44.266900
11
-77.575700
21
44.266900
0
LINE
8
Layer 1
10
-77.575700
20
44.266900
11
-77.575700
21
41.066900
0
LINE
8
Layer 1
10
-77.575700
20
41.066900
11
-85.333300
21
41.066900
0
LINE
8
Layer 1
10
-31.030300
20
41.066900
11
-38.787800
21
41.066900
0
LINE
8
Layer 1
10
-38.787800
20
41.066900
11
-38.787800
21
44.266900
0
LINE
8
Layer 1
10
-38.787800
20
44.266900
11
-31.030300
21
44.266900
0
LINE
8
Layer 1
10
-31.030300
20
44.266900
11
-31.030300
21
41.066900
0
LINE
8
Layer 1
10
-46.545400
20
41.066900
11
-54.303000
21
41.066900
0
LINE
8
Layer 1
10
-54.303000
20
41.066900
11
-54.303000
21
44.266900
0
LINE
8
Layer 1
10
-54.303000
20
44.266900
11
-46.545400
21
44.266900
0
LINE
8
Layer 1
10
-46.545400
20
44.266900
11
-46.545400
21
41.066900
0
LINE
8
Layer 1
10
-62.060600
20
41.066900
11
-69.818100
21
41.066900
0
LINE
8
Layer 1
10
-69.818100
20
41.066900
11
-69.818100
21
44.266900
0
LINE
8
Layer 1
10
-69.818100
20
44.266900
11
-62.060600
21
44.266900
0
LINE
8
Layer 1
10
-62.060600
20
44.266900
11
-62.060600
21
41.066900
0
LINE
8
Layer 1
10
-23.272700
20
44.266900
11
-15.515100
21
44.266900
0
LINE
8
Layer 1
10
-15.515100
20
44.266900
11
-15.515100
21
41.066900
0
LINE
8
Layer 1
10
-15.515100
20
41.066900
11
-23.272700
21
41.066900
0
LINE
8
Layer 1
10
-23.272700
20
41.066900
11
-23.272700
21
44.266900
 0 
ENDSEC
 0 
EOF