999
"DXF R12 Output" (www.mydxf.blogspot.com)
 0 
SECTION
 2 
HEADER
 9 
$ACADVER
 1 
AC1009
 9 
$EXTMIN
 10 
 0 
 20 
 0 
 9 
$EXTMAX
 10 
 8.5 
 20 
 11 
 0 
ENDSEC
 0 
SECTION
 2 
ENTITIES
0
LINE
8
Layer 1
10
0.846666
20
317.647000
11
-0.846666
21
315.953000
0
LINE
8
Layer 1
10
0.000000
20
318.211000
11
0.000000
21
315.389000
0
LINE
8
Layer 1
10
2.257780
20
315.671000
11
1.128890
21
314.542110
0
LINE
8
Layer 1
10
1.693330
20
316.236000
11
0.564440
21
315.107110
0
LINE
8
Layer 1
10
1.128890
20
316.800000
11
0.000000
21
315.671110
0
LINE
8
Layer 1
10
-68.266600
20
-6.399760
11
-68.266600
21
-17.066400
0
LINE
8
Layer 1
10
-68.266600
20
-17.066400
11
-78.933300
21
-17.066400
0
LINE
8
Layer 1
10
-78.933300
20
-17.066400
11
-78.933300
21
-6.399760
0
LINE
8
Layer 1
10
-78.933300
20
-6.399760
11
-68.266600
21
-6.399760
0
LINE
8
Layer 1
10
-29.333300
20
-42.666400
11
-29.450554
21
-40.900277
0
LINE
8
Layer 1
10
-29.450554
20
-40.900277
11
-29.794838
21
-39.187507
0
LINE
8
Layer 1
10
-29.794838
20
-39.187507
11
-30.354934
21
-37.547521
0
LINE
8
Layer 1
10
-30.354934
20
-37.547521
11
-31.119623
21
-35.999750
0
LINE
8
Layer 1
10
-31.119623
20
-35.999750
11
-32.077688
21
-34.563624
0
LINE
8
Layer 1
10
-32.077688
20
-34.563624
11
-33.217909
21
-33.258574
0
LINE
8
Layer 1
10
-33.217909
20
-33.258574
11
-34.529069
21
-32.104030
0
LINE
8
Layer 1
10
-34.529069
20
-32.104030
11
-35.999950
21
-31.119423
0
LINE
8
Layer 1
10
-35.999950
20
-31.119423
11
-37.588085
21
-30.337907
0
LINE
8
Layer 1
10
-37.588085
20
-30.337907
11
-39.243529
21
-29.779681
0
LINE
8
Layer 1
10
-39.243529
20
-29.779681
11
-40.943846
21
-29.444745
0
LINE
8
Layer 1
10
-40.943846
20
-29.444745
11
-42.666600
21
-29.333100
0
LINE
8
Layer 1
10
-42.666600
20
-29.333100
11
-44.389354
21
-29.444745
0
LINE
8
Layer 1
10
-44.389354
20
-29.444745
11
-46.089671
21
-29.779681
0
LINE
8
Layer 1
10
-46.089671
20
-29.779681
11
-47.745115
21
-30.337907
0
LINE
8
Layer 1
10
-47.745115
20
-30.337907
11
-49.333250
21
-31.119423
0
LINE
8
Layer 1
10
-49.333250
20
-31.119423
11
-50.804131
21
-32.104030
0
LINE
8
Layer 1
10
-50.804131
20
-32.104030
11
-52.115291
21
-33.258574
0
LINE
8
Layer 1
10
-52.115291
20
-33.258574
11
-53.255512
21
-34.563624
0
LINE
8
Layer 1
10
-53.255512
20
-34.563624
11
-54.213577
21
-35.999750
0
LINE
8
Layer 1
10
-54.213577
20
-35.999750
11
-54.978266
21
-37.547521
0
LINE
8
Layer 1
10
-54.978266
20
-37.547521
11
-55.538362
21
-39.187507
0
LINE
8
Layer 1
10
-55.538362
20
-39.187507
11
-55.882646
21
-40.900277
0
LINE
8
Layer 1
10
-55.882646
20
-40.900277
11
-55.999900
21
-42.666400
0
LINE
8
Layer 1
10
-55.999900
20
-42.666400
11
-55.882646
21
-44.432523
0
LINE
8
Layer 1
10
-55.882646
20
-44.432523
11
-55.538362
21
-46.145293
0
LINE
8
Layer 1
10
-55.538362
20
-46.145293
11
-54.978266
21
-47.785279
0
LINE
8
Layer 1
10
-54.978266
20
-47.785279
11
-54.213577
21
-49.333050
0
LINE
8
Layer 1
10
-54.213577
20
-49.333050
11
-53.255512
21
-50.769176
0
LINE
8
Layer 1
10
-53.255512
20
-50.769176
11
-52.115291
21
-52.074226
0
LINE
8
Layer 1
10
-52.115291
20
-52.074226
11
-50.804131
21
-53.228770
0
LINE
8
Layer 1
10
-50.804131
20
-53.228770
11
-49.333250
21
-54.213377
0
LINE
8
Layer 1
10
-49.333250
20
-54.213377
11
-47.745115
21
-54.994893
0
LINE
8
Layer 1
10
-47.745115
20
-54.994893
11
-46.089671
21
-55.553119
0
LINE
8
Layer 1
10
-46.089671
20
-55.553119
11
-44.389354
21
-55.888055
0
LINE
8
Layer 1
10
-44.389354
20
-55.888055
11
-42.666600
21
-55.999700
0
LINE
8
Layer 1
10
-42.666600
20
-55.999700
11
-40.943846
21
-55.888055
0
LINE
8
Layer 1
10
-40.943846
20
-55.888055
11
-39.243529
21
-55.553119
0
LINE
8
Layer 1
10
-39.243529
20
-55.553119
11
-37.588085
21
-54.994893
0
LINE
8
Layer 1
10
-37.588085
20
-54.994893
11
-35.999950
21
-54.213377
0
LINE
8
Layer 1
10
-35.999950
20
-54.213377
11
-34.529069
21
-53.228770
0
LINE
8
Layer 1
10
-34.529069
20
-53.228770
11
-33.217909
21
-52.074226
0
LINE
8
Layer 1
10
-33.217909
20
-52.074226
11
-32.077688
21
-50.769176
0
LINE
8
Layer 1
10
-32.077688
20
-50.769176
11
-31.119623
21
-49.333050
0
LINE
8
Layer 1
10
-31.119623
20
-49.333050
11
-30.354934
21
-47.785279
0
LINE
8
Layer 1
10
-30.354934
20
-47.785279
11
-29.794838
21
-46.145293
0
LINE
8
Layer 1
10
-29.794838
20
-46.145293
11
-29.450554
21
-44.432523
0
LINE
8
Layer 1
10
-29.450554
20
-44.432523
11
-29.333300
21
-42.666400
0
LINE
8
Layer 1
10
-29.333300
20
-42.666400
11
-29.333300
21
-42.666400
0
LINE
8
Layer 1
10
-82.133300
20
-38.787600
11
-82.133300
21
-46.545200
0
LINE
8
Layer 1
10
-82.133300
20
-46.545200
11
-85.333300
21
-46.545200
0
LINE
8
Layer 1
10
-85.333300
20
-46.545200
11
-85.333300
21
-54.302700
0
LINE
8
Layer 1
10
-85.333300
20
-54.302700
11
-82.133300
21
-54.302700
0
LINE
8
Layer 1
10
-82.133300
20
-54.302700
11
-82.133300
21
-62.060300
0
LINE
8
Layer 1
10
-82.133300
20
-62.060300
11
-85.333300
21
-62.060300
0
LINE
8
Layer 1
10
-85.333300
20
-62.060300
11
-85.333300
21
-69.817900
0
LINE
8
Layer 1
10
-85.333300
20
-69.817900
11
-82.133300
21
-69.817900
0
LINE
8
Layer 1
10
-82.133300
20
-69.817900
11
-82.133300
21
-77.575400
0
LINE
8
Layer 1
10
-82.133300
20
-77.575400
11
-85.333300
21
-77.575400
0
LINE
8
Layer 1
10
-85.333300
20
-77.575400
11
-85.333300
21
-85.333000
0
LINE
8
Layer 1
10
-85.333300
20
-85.333000
11
-77.575700
21
-85.333000
0
LINE
8
Layer 1
10
-77.575700
20
-85.333000
11
-77.575700
21
-82.133000
0
LINE
8
Layer 1
10
-77.575700
20
-82.133000
11
-69.818100
21
-82.133000
0
LINE
8
Layer 1
10
-69.818100
20
-82.133000
11
-69.818100
21
-85.333000
0
LINE
8
Layer 1
10
-69.818100
20
-85.333000
11
-62.060600
21
-85.333000
0
LINE
8
Layer 1
10
-62.060600
20
-85.333000
11
-62.060600
21
-82.133000
0
LINE
8
Layer 1
10
-62.060600
20
-82.133000
11
-54.303000
21
-82.133000
0
LINE
8
Layer 1
10
-54.303000
20
-82.133000
11
-54.303000
21
-85.333000
0
LINE
8
Layer 1
10
-54.303000
20
-85.333000
11
-46.545400
21
-85.333000
0
LINE
8
Layer 1
10
-46.545400
20
-85.333000
11
-46.545400
21
-82.133000
0
LINE
8
Layer 1
10
-46.545400
20
-82.133000
11
-38.787800
21
-82.133000
0
LINE
8
Layer 1
10
-38.787800
20
-82.133000
11
-38.787800
21
-85.333000
0
LINE
8
Layer 1
10
-38.787800
20
-85.333000
11
-31.030300
21
-85.333000
0
LINE
8
Layer 1
10
-31.030300
20
-85.333000
11
-31.030300
21
-82.133000
0
LINE
8
Layer 1
10
-31.030300
20
-82.133000
11
-23.272700
21
-82.133000
0
LINE
8
Layer 1
10
-23.272700
20
-82.133000
11
-23.272700
21
-85.333000
0
LINE
8
Layer 1
10
-23.272700
20
-85.333000
11
-15.515100
21
-85.333000
0
LINE
8
Layer 1
10
-15.515100
20
-85.333000
11
-15.515100
21
-82.133000
0
LINE
8
Layer 1
10
-15.515100
20
-82.133000
11
-7.757570
21
-82.133000
0
LINE
8
Layer 1
10
-7.757570
20
-82.133000
11
-7.757570
21
-85.333000
0
LINE
8
Layer 1
10
-7.757570
20
-85.333000
11
0.000000
21
-85.333000
0
LINE
8
Layer 1
10
0.000000
20
-85.333000
11
0.000000
21
-77.575400
0
LINE
8
Layer 1
10
0.000000
20
-77.575400
11
-3.200000
21
-77.575400
0
LINE
8
Layer 1
10
-3.200000
20
-77.575400
11
-3.200000
21
-69.817900
0
LINE
8
Layer 1
10
-3.200000
20
-69.817900
11
0.000000
21
-69.817900
0
LINE
8
Layer 1
10
0.000000
20
-69.817900
11
0.000000
21
-62.060300
0
LINE
8
Layer 1
10
0.000000
20
-62.060300
11
-3.200000
21
-62.060300
0
LINE
8
Layer 1
10
-3.200000
20
-62.060300
11
-3.200000
21
-54.302700
0
LINE
8
Layer 1
10
-3.200000
20
-54.302700
11
0.000000
21
-54.302700
0
LINE
8
Layer 1
10
0.000000
20
-54.302700
11
0.000000
21
-46.545200
0
LINE
8
Layer 1
10
0.000000
20
-46.545200
11
-3.200000
21
-46.545200
0
LINE
8
Layer 1
10
-3.200000
20
-46.545200
11
-3.200000
21
-38.787600
0
LINE
8
Layer 1
10
-3.200000
20
-38.787600
11
0.000000
21
-38.787600
0
LINE
8
Layer 1
10
0.000000
20
-38.787600
11
0.000000
21
-31.030000
0
LINE
8
Layer 1
10
0.000000
20
-31.030000
11
-3.200000
21
-31.030000
0
LINE
8
Layer 1
10
-3.200000
20
-31.030000
11
-3.200000
21
-23.272500
0
LINE
8
Layer 1
10
-3.200000
20
-23.272500
11
0.000000
21
-23.272500
0
LINE
8
Layer 1
10
0.000000
20
-23.272500
11
0.000000
21
-15.514900
0
LINE
8
Layer 1
10
0.000000
20
-15.514900
11
-3.200000
21
-15.514900
0
LINE
8
Layer 1
10
-3.200000
20
-15.514900
11
-3.200000
21
-7.757330
0
LINE
8
Layer 1
10
-3.200000
20
-7.757330
11
0.000000
21
-7.757330
0
LINE
8
Layer 1
10
0.000000
20
-7.757330
11
0.000000
21
0.000245
0
LINE
8
Layer 1
10
0.000000
20
0.000245
11
-7.757570
21
0.000245
0
LINE
8
Layer 1
10
-7.757570
20
0.000245
11
-7.757570
21
-3.199760
0
LINE
8
Layer 1
10
-7.757570
20
-3.199760
11
-15.515100
21
-3.199760
0
LINE
8
Layer 1
10
-15.515100
20
-3.199760
11
-15.515100
21
0.000245
0
LINE
8
Layer 1
10
-15.515100
20
0.000245
11
-23.272700
21
0.000245
0
LINE
8
Layer 1
10
-23.272700
20
0.000245
11
-23.272700
21
-3.199760
0
LINE
8
Layer 1
10
-23.272700
20
-3.199760
11
-31.030300
21
-3.199760
0
LINE
8
Layer 1
10
-31.030300
20
-3.199760
11
-31.030300
21
0.000245
0
LINE
8
Layer 1
10
-31.030300
20
0.000245
11
-38.787800
21
0.000245
0
LINE
8
Layer 1
10
-38.787800
20
0.000245
11
-38.787800
21
-3.199760
0
LINE
8
Layer 1
10
-38.787800
20
-3.199760
11
-46.545400
21
-3.199760
0
LINE
8
Layer 1
10
-46.545400
20
-3.199760
11
-46.545400
21
0.000245
0
LINE
8
Layer 1
10
-46.545400
20
0.000245
11
-54.303000
21
0.000245
0
LINE
8
Layer 1
10
-54.303000
20
0.000245
11
-54.303000
21
-3.199760
0
LINE
8
Layer 1
10
-54.303000
20
-3.199760
11
-62.060600
21
-3.199760
0
LINE
8
Layer 1
10
-62.060600
20
-3.199760
11
-62.060600
21
0.000245
0
LINE
8
Layer 1
10
-62.060600
20
0.000245
11
-69.818100
21
0.000245
0
LINE
8
Layer 1
10
-69.818100
20
0.000245
11
-69.818100
21
-3.199760
0
LINE
8
Layer 1
10
-69.818100
20
-3.199760
11
-77.575700
21
-3.199760
0
LINE
8
Layer 1
10
-77.575700
20
-3.199760
11
-77.575700
21
0.000245
0
LINE
8
Layer 1
10
-77.575700
20
0.000245
11
-85.333300
21
0.000245
0
LINE
8
Layer 1
10
-85.333300
20
0.000245
11
-85.333300
21
-7.757330
0
LINE
8
Layer 1
10
-85.333300
20
-7.757330
11
-82.133300
21
-7.757330
0
LINE
8
Layer 1
10
-82.133300
20
-7.757330
11
-82.133300
21
-15.514900
0
LINE
8
Layer 1
10
-82.133300
20
-15.514900
11
-85.333300
21
-15.514900
0
LINE
8
Layer 1
10
-85.333300
20
-15.514900
11
-85.333300
21
-23.272500
0
LINE
8
Layer 1
10
-85.333300
20
-23.272500
11
-82.133300
21
-23.272500
0
LINE
8
Layer 1
10
-82.133300
20
-23.272500
11
-82.133300
21
-31.030000
0
LINE
8
Layer 1
10
-82.133300
20
-31.030000
11
-85.333300
21
-31.030000
0
LINE
8
Layer 1
10
-85.333300
20
-31.030000
11
-85.333300
21
-38.787600
0
LINE
8
Layer 1
10
-85.333300
20
-38.787600
11
-82.133300
21
-38.787600
 0 
ENDSEC
 0 
EOF