0
SECTION
2
HEADER
9
$INSUNITS
70
4
9
$ACADVER
1
AC1014
9
$HANDSEED
5
FFFF
0
ENDSEC
0
SECTION
2
TABLES
0
TABLE
2
VPORT
5
8
100
AcDbSymbolTable
0
ENDTAB
0
TABLE
2
LTYPE
5
5
100
AcDbSymbolTable
0
LTYPE
5
14
100
AcDbSymbolTableRecord
100
AcDbLinetypeTableRecord
2
BYBLOCK
70
0
0
LTYPE
5
15
100
AcDbSymbolTableRecord
100
AcDbLinetypeTableRecord
2
BYLAYER
70
0
0
ENDTAB
0
TABLE
2
LAYER
5
2
100
AcDbSymbolTable
70
2
0
LAYER
5
50
100
AcDbSymbolTableRecord
100
AcDbLayerTableRecord
2
0
70
0
6
CONTINUOUS
0
ENDTAB
0
TABLE
2
STYLE
5
3
100
AcDbSymbolTable
70
1
0
STYLE
5
11
100
AcDbSymbolTableRecord
100
AcDbTextStyleTableRecord
2
STANDARD
70
0
0
ENDTAB
0
TABLE
2
VIEW
5
6
100
AcDbSymbolTable
70
0
0
ENDTAB
0
TABLE
2
UCS
5
7
100
AcDbSymbolTable
70
0
0
ENDTAB
0
TABLE
2
APPID
5
9
100
AcDbSymbolTable
70
2
0
APPID
5
12
100
AcDbSymbolTableRecord
100
AcDbRegAppTableRecord
2
ACAD
70
0
0
ENDTAB
0
TABLE
2
DIMSTYLE
5
A
100
AcDbSymbolTable
70
1
0
ENDTAB
0
TABLE
2
BLOCK_RECORD
5
1
100
AcDbSymbolTable
70
1
0
BLOCK_RECORD
5
1F
100
AcDbSymbolTableRecord
100
AcDbBlockTableRecord
2
*MODEL_SPACE
0
BLOCK_RECORD
5
1B
100
AcDbSymbolTableRecord
100
AcDbBlockTableRecord
2
*PAPER_SPACE
0
ENDTAB
0
ENDSEC
0
SECTION
2
BLOCKS
0
BLOCK
5
20
100
AcDbEntity
100
AcDbBlockBegin
2
*MODEL_SPACE
0
ENDBLK
5
21
100
AcDbEntity
100
AcDbBlockEnd
0
BLOCK
5
1C
100
AcDbEntity
100
AcDbBlockBegin
2
*PAPER_SPACE
0
ENDBLK
5
1D
100
AcDbEntity
100
AcDbBlockEnd
0
ENDSEC
0
SECTION
2
ENTITIES
0
LWPOLYLINE
5
100
100
AcDbEntity
8
0
100
AcDbPolyline
90
8
70
1
43
0.0
10
-12.999999999999998
20
-23
10
-13.000000000000004
20
-56.999999999999993
42
-0.41421356237309437
10
-23
20
-67
10
-57
20
-67
42
-0.41421356237309453
10
-67
20
-57
10
-67
20
-23
42
-0.41421356237309453
10
-57
20
-12.999999999999998
10
-23
20
-12.999999999999998
42
-0.41421356237309453
0
LWPOLYLINE
5
101
100
AcDbEntity
8
0
100
AcDbPolyline
90
2
70
1
43
0.0
10
-77.000000000000114
20
-40.000000745058479
42
1.000000149011623
10
-72.000000000000227
20
-40.000000000000419
42
1.0000004470349357
0
LWPOLYLINE
5
102
100
AcDbEntity
8
0
100
AcDbPolyline
90
44
70
1
43
0.0
10
0
20
-43.63636363636364
10
1.3446492702630884e-31
20
-36.36363636363636
10
-3.0000000000000004
20
-36.36363636363636
10
-3.0000000000000004
20
-29.090909090909083
10
0
20
-29.090909090909083
10
1.7928656936841181e-31
20
-21.818181818181806
10
-3.0000000000000004
20
-21.818181818181806
10
-3.0000000000000004
20
-14.545454545454533
10
0
20
-14.545454545454533
10
2.2410821171051478e-31
20
-7.2727272727272574
10
-3.0000000000000004
20
-7.2727272727272574
10
-2.9999999999999982
20
-2.9999999999999982
10
-77
20
-2.9999999999999982
10
-77.000001147389412
20
-7.2727272727272574
10
-80.000001147389412
20
-7.2727272727272574
10
-80.000001147389412
20
-14.545454545454533
10
-77.000001147389412
20
-14.545454545454533
10
-77.000001147389412
20
-21.818181818181806
10
-80.000001147389412
20
-21.818181818181806
10
-80.000001147389412
20
-29.090909090909083
10
-77.000001147389412
20
-29.090909090909083
10
-77.000001147389412
20
-36.36363636363636
10
-80.000001147389412
20
-36.36363636363636
10
-80.000001147389412
20
-43.63636363636364
10
-77.000001147389412
20
-43.63636363636364
10
-77.000001147389412
20
-50.909090909090921
10
-80.000001147389412
20
-50.909090909090921
10
-80.000001147389412
20
-58.181818181818194
10
-77.000001147389412
20
-58.181818181818194
10
-77.000001147389412
20
-65.454545454545467
10
-80.000001147389412
20
-65.454545454545467
10
-80.000001147389412
20
-72.727272727272748
10
-77.000001147389412
20
-72.727272727272748
10
-77
20
-77
10
-2.9999999999999982
20
-77
10
-3.0000000000000004
20
-72.727272727272748
10
0
20
-72.727272727272748
10
0
20
-65.454545454545467
10
-3.0000000000000004
20
-65.454545454545467
10
-3.0000000000000004
20
-58.181818181818194
10
0
20
-58.181818181818194
10
0
20
-50.909090909090921
10
-3.0000000000000004
20
-50.909090909090921
10
-3.0000000000000004
20
-43.63636363636364
0
ENDSEC
0
SECTION
2
OBJECTS
0
DICTIONARY
5
C
100
AcDbDictionary
3
ACAD_GROUP
350
D
3
ACAD_MLINESTYLE
350
17
0
DICTIONARY
5
D
100
AcDbDictionary
0
DICTIONARY
5
1A
330
C
100
AcDbDictionary
0
DICTIONARY
5
17
100
AcDbDictionary
0
ENDSEC
0
EOF
